PathFileType	4	(X/Y/Z)	C:\Users\86182\Documents\cortex\Trimmed_M3_L2.trc
DataRate	CameraRate	NumFrames	NumMarkers	Units	OrigDataRate	OrigDataStartFrame	OrigNumFrames
100.00	100.00	       101	2	mm	100.00	1	       901
Frame#	Time	gripper			box			
		X1	Y1	Z1	X2	Y2	Z2	

1	0.000	274.68805	148.68097	192.96663	277.77618	146.64726	57.38435	
2	0.010	274.68564	148.67920	192.96796	277.77127	146.65054	57.37361	
3	0.020	274.70340	148.67824	192.96198	277.77615	146.63882	57.40352	
4	0.030	274.68564	148.67920	192.96796	277.81381	146.61469	57.39489	
5	0.040	274.70584	148.68002	192.96063	277.80234	146.62038	57.39383	
6	0.050	274.70093	148.67644	192.96332	277.78973	146.63680	57.39729	
7	0.060	274.69852	148.67467	192.96465	277.78415	146.64384	57.39724	
8	0.070	274.69852	148.67467	192.96465	277.80219	146.62193	57.39021	
9	0.080	274.68884	148.67809	192.96713	277.78394	146.63698	57.41276	
10	0.090	274.68884	148.67809	192.96713	277.83334	146.60040	57.41125	
11	0.100	274.69852	148.67467	192.96465	277.79153	146.63756	57.37705	
12	0.110	274.69208	148.67694	192.96631	277.78827	146.63986	57.40900	
13	0.120	274.66806	148.69069	192.97105	277.77783	146.64563	57.38910	
14	0.130	274.65680	148.68936	192.97539	277.78580	146.64226	57.40194	
15	0.140	274.71573	148.68724	192.95526	277.80505	146.62711	57.39002	
16	0.150	274.69250	148.68292	192.96788	277.78476	146.63617	57.41513	
17	0.160	274.69208	148.67694	192.96631	277.78088	146.64551	57.39139	
18	0.170	274.68564	148.67920	192.96796	277.77075	146.64827	57.37846	
19	0.180	274.69531	148.67580	192.96547	277.77881	146.64328	57.39505	
20	0.190	274.68503	148.69269	192.96457	277.77747	146.65027	57.37827	
21	0.200	274.71326	148.68542	192.95660	277.78339	146.64313	57.39850	
22	0.210	274.68896	148.68864	192.96426	277.78082	146.64705	57.38779	
23	0.220	274.71252	148.68837	192.95609	277.77533	146.64806	57.38197	
24	0.230	274.67279	148.68373	192.97127	277.78165	146.64624	57.39014	
25	0.240	274.68884	148.67809	192.96713	277.79031	146.63905	57.39248	
26	0.250	274.69852	148.67467	192.96465	277.77997	146.64784	57.38540	
27	0.260	274.68805	148.68097	192.96663	277.78580	146.64226	57.40194	
28	0.270	274.68564	148.67920	192.96796	277.77914	146.64867	57.38301	
29	0.280	274.69531	148.67580	192.96547	277.77914	146.64867	57.38301	
30	0.290	274.69208	148.67694	192.96631	277.77747	146.65027	57.37827	
31	0.300	274.67596	148.68262	192.97046	277.77692	146.64799	57.38312	
32	0.310	274.70584	148.68002	192.96063	277.77069	146.65674	57.35910	
33	0.320	274.67596	148.68262	192.97046	277.78827	146.63986	57.40900	
34	0.330	274.66318	148.68712	192.97374	277.78033	146.64323	57.39621	
35	0.340	274.69208	148.67694	192.96631	277.77997	146.64784	57.38540	
36	0.350	274.69531	148.67580	192.96547	277.78745	146.64069	57.40663	
37	0.360	274.69296	148.68457	192.96394	277.77408	146.65350	57.36869	
38	0.370	274.68884	148.67809	192.96713	277.78165	146.64624	57.39014	
39	0.380	274.69208	148.67694	192.96631	277.78336	146.63470	57.41757	
40	0.390	274.71326	148.68542	192.95660	277.77863	146.64880	57.36272	
41	0.400	274.69531	148.67580	192.96547	277.80060	146.62801	57.39486	
42	0.410	274.68884	148.67809	192.96713	277.77832	146.64948	57.38065	
43	0.420	274.69852	148.67467	192.96465	277.77353	146.64276	57.39279	
44	0.430	274.69531	148.67580	192.96547	277.78751	146.63913	57.41026	
45	0.440	274.69531	148.67580	192.96547	277.77005	146.63911	57.39883	
46	0.450	274.69852	148.67467	192.96465	277.79922	146.63106	57.40657	
47	0.460	274.70093	148.67644	192.96332	277.79535	146.63274	57.41022	
48	0.470	274.69852	148.67467	192.96465	277.77200	146.64284	57.39167	
49	0.480	274.68884	148.67809	192.96713	277.78217	146.64011	57.40448	
50	0.490	274.70834	148.68184	192.95929	277.77017	146.64600	57.38326	
51	0.500	274.70834	148.68184	192.95929	277.77075	146.63983	57.39763	
52	0.510	274.68503	148.69269	192.96457	277.77936	146.63716	57.40935	
53	0.520	274.68973	148.68570	192.96478	277.76917	146.64833	57.37726	
54	0.530	274.69852	148.67467	192.96465	277.77298	146.64047	57.39760	
55	0.540	274.70834	148.68184	192.95929	277.76886	146.65141	57.37004	
56	0.550	274.70340	148.67824	192.96198	277.77740	146.64180	57.39749	
57	0.560	274.72314	148.69264	192.95122	277.78497	146.64307	57.39957	
58	0.570	274.69852	148.67467	192.96465	277.78082	146.64705	57.38779	
59	0.580	274.71005	148.68655	192.95743	277.78165	146.64624	57.39014	
60	0.590	274.66318	148.68712	192.97374	277.78082	146.64705	57.38779	
61	0.600	274.69852	148.67467	192.96465	277.77832	146.64948	57.38065	
62	0.610	274.64313	148.69269	192.98039	277.78497	146.64307	57.39957	
63	0.620	274.68564	148.67920	192.96796	277.77914	146.64867	57.38301	
64	0.630	274.67596	148.68262	192.97046	277.78152	146.64101	57.37239	
65	0.640	274.67279	148.68373	192.97127	277.77914	146.64867	57.38301	
66	0.650	274.67596	148.68262	192.97046	277.78116	146.64246	57.39855	
67	0.660	274.69638	148.69405	192.96024	277.78082	146.64705	57.38779	
68	0.670	274.67520	148.68550	192.96994	277.77838	146.64793	57.38426	
69	0.680	274.70044	148.67822	192.96571	277.77921	146.64711	57.38665	
70	0.690	274.70605	148.69064	192.95775	277.78247	146.64546	57.39251	
71	0.700	274.69159	148.67873	192.96870	277.77664	146.65108	57.37587	
72	0.710	274.67279	148.68373	192.97127	277.77832	146.64948	57.38065	
73	0.720	274.68259	148.69090	192.96590	277.77496	146.65271	57.37110	
74	0.730	274.67279	148.68373	192.97127	277.77783	146.64563	57.38910	
75	0.740	274.69391	148.69225	192.96158	277.77664	146.65108	57.37587	
76	0.750	274.71078	148.68362	192.95795	277.78339	146.64313	57.39850	
77	0.760	274.69052	148.68277	192.96529	277.78271	146.64236	57.39971	
78	0.770	274.68240	148.68034	192.96880	277.77747	146.65027	57.37827	
79	0.780	274.66318	148.68712	192.97374	277.77731	146.64336	57.39392	
80	0.790	274.68884	148.67809	192.96713	277.78165	146.64624	57.39014	
81	0.800	274.67841	148.69473	192.98802	277.77087	146.64673	57.38204	
82	0.810	274.68240	148.68034	192.96880	277.77521	146.64960	57.37834	
83	0.820	274.69547	148.68637	192.96260	277.78333	146.64467	57.39485	
84	0.830	274.67838	148.68437	192.96912	277.77155	146.65593	57.36150	
85	0.840	274.70834	148.68184	192.95929	277.78415	146.64384	57.39724	
86	0.850	274.69296	148.68457	192.96394	277.78827	146.63986	57.40900	
87	0.860	274.67371	148.69135	192.96890	277.77356	146.65123	57.37357	
88	0.870	274.70435	148.68588	192.95961	277.78354	146.64159	57.40203	
89	0.880	274.69531	148.67580	192.96547	277.78497	146.64307	57.39957	
90	0.890	274.67279	148.68373	192.97127	277.79764	146.63284	57.37223	
91	0.900	274.68515	148.67596	192.98541	277.81226	146.62077	57.39942	
92	0.910	274.68240	148.68034	192.96880	277.77853	146.64636	57.38787	
93	0.920	274.69852	148.67467	192.96465	277.78091	146.64325	57.38670	
94	0.930	274.67279	148.68373	192.97127	277.78333	146.64467	57.39485	
95	0.940	274.69208	148.67694	192.96631	277.77618	146.64726	57.38435	
96	0.950	274.68884	148.67809	192.96713	277.78604	146.63919	57.40910	
97	0.960	274.65363	148.69048	192.97620	277.78827	146.63986	57.40900	
98	0.970	274.69852	148.67467	192.96465	277.77505	146.65117	57.37473	
99	0.980	274.69852	148.67467	192.96465	277.77496	146.65271	57.37110	
100	0.990	274.67917	148.68149	192.96962	277.77658	146.63425	57.41419	
101	1.000	274.70111	148.68703	192.96043	277.77686	146.63956	57.40229	
